<mxfile host="app.diagrams.net" modified="2023-11-23T13:14:20.644Z" agent="Mozilla/5.0 (Windows NT 10.0; Win64; x64) AppleWebKit/537.36 (KHTML, like Gecko) Chrome/119.0.0.0 Safari/537.36" etag="ikPbErxtMle99ITAH1vC" version="22.1.3" type="github">
  <diagram name="Page-1" id="G1UgSnTUx0AFwGoddcQG">
    <mxGraphModel dx="2311" dy="920" grid="1" gridSize="10" guides="1" tooltips="1" connect="1" arrows="1" fold="1" page="1" pageScale="1" pageWidth="827" pageHeight="1169" math="0" shadow="0">
      <root>
        <mxCell id="0" />
        <mxCell id="1" parent="0" />
        <mxCell id="4tnUn31xdwrPM_jAZZD--12" value="" style="group" vertex="1" connectable="0" parent="1">
          <mxGeometry x="-20" y="80" width="860" height="960" as="geometry" />
        </mxCell>
        <mxCell id="OJw41beUeaNImSEufT9z-2" value="FIltro Entrada_Cliente" style="swimlane;whiteSpace=wrap;html=1;" parent="4tnUn31xdwrPM_jAZZD--12" vertex="1">
          <mxGeometry x="65" y="190" width="150" height="50" as="geometry" />
        </mxCell>
        <mxCell id="OJw41beUeaNImSEufT9z-3" value="Catalogo_Cliente" style="swimlane;whiteSpace=wrap;html=1;" parent="4tnUn31xdwrPM_jAZZD--12" vertex="1">
          <mxGeometry x="240" y="190" width="150" height="50" as="geometry" />
        </mxCell>
        <mxCell id="OJw41beUeaNImSEufT9z-4" value="FIltro Entrada_Fornecedor" style="swimlane;whiteSpace=wrap;html=1;" parent="4tnUn31xdwrPM_jAZZD--12" vertex="1">
          <mxGeometry x="450" y="190" width="160" height="50" as="geometry" />
        </mxCell>
        <mxCell id="OJw41beUeaNImSEufT9z-9" value="Catalogo_Fornecedor" style="swimlane;whiteSpace=wrap;html=1;" parent="4tnUn31xdwrPM_jAZZD--12" vertex="1">
          <mxGeometry x="630" y="190" width="150" height="50" as="geometry" />
        </mxCell>
        <mxCell id="OJw41beUeaNImSEufT9z-15" style="edgeStyle=orthogonalEdgeStyle;rounded=0;orthogonalLoop=1;jettySize=auto;html=1;entryX=0.5;entryY=0;entryDx=0;entryDy=0;" parent="4tnUn31xdwrPM_jAZZD--12" source="OJw41beUeaNImSEufT9z-11" target="OJw41beUeaNImSEufT9z-2" edge="1">
          <mxGeometry relative="1" as="geometry">
            <Array as="points">
              <mxPoint x="230" y="160" />
              <mxPoint x="140" y="160" />
            </Array>
          </mxGeometry>
        </mxCell>
        <mxCell id="OJw41beUeaNImSEufT9z-16" style="edgeStyle=orthogonalEdgeStyle;rounded=0;orthogonalLoop=1;jettySize=auto;html=1;entryX=0.5;entryY=0;entryDx=0;entryDy=0;" parent="4tnUn31xdwrPM_jAZZD--12" source="OJw41beUeaNImSEufT9z-11" target="OJw41beUeaNImSEufT9z-3" edge="1">
          <mxGeometry relative="1" as="geometry">
            <Array as="points">
              <mxPoint x="230" y="160" />
              <mxPoint x="315" y="160" />
            </Array>
          </mxGeometry>
        </mxCell>
        <mxCell id="OJw41beUeaNImSEufT9z-17" style="edgeStyle=orthogonalEdgeStyle;rounded=0;orthogonalLoop=1;jettySize=auto;html=1;" parent="4tnUn31xdwrPM_jAZZD--12" source="OJw41beUeaNImSEufT9z-12" target="OJw41beUeaNImSEufT9z-4" edge="1">
          <mxGeometry relative="1" as="geometry">
            <Array as="points">
              <mxPoint x="620" y="160" />
              <mxPoint x="530" y="160" />
            </Array>
          </mxGeometry>
        </mxCell>
        <mxCell id="OJw41beUeaNImSEufT9z-18" style="edgeStyle=orthogonalEdgeStyle;rounded=0;orthogonalLoop=1;jettySize=auto;html=1;" parent="4tnUn31xdwrPM_jAZZD--12" source="OJw41beUeaNImSEufT9z-12" target="OJw41beUeaNImSEufT9z-9" edge="1">
          <mxGeometry relative="1" as="geometry">
            <Array as="points">
              <mxPoint x="620" y="160" />
              <mxPoint x="705" y="160" />
            </Array>
          </mxGeometry>
        </mxCell>
        <mxCell id="OJw41beUeaNImSEufT9z-20" value="Tabelas de Atributos Cliente" style="swimlane;whiteSpace=wrap;html=1;startSize=20;" parent="4tnUn31xdwrPM_jAZZD--12" vertex="1">
          <mxGeometry x="140" y="320" width="180" height="70" as="geometry" />
        </mxCell>
        <mxCell id="OJw41beUeaNImSEufT9z-23" style="edgeStyle=orthogonalEdgeStyle;rounded=0;orthogonalLoop=1;jettySize=auto;html=1;entryX=0.5;entryY=0;entryDx=0;entryDy=0;" parent="4tnUn31xdwrPM_jAZZD--12" source="OJw41beUeaNImSEufT9z-2" target="OJw41beUeaNImSEufT9z-20" edge="1">
          <mxGeometry relative="1" as="geometry" />
        </mxCell>
        <mxCell id="OJw41beUeaNImSEufT9z-24" style="edgeStyle=orthogonalEdgeStyle;rounded=0;orthogonalLoop=1;jettySize=auto;html=1;" parent="4tnUn31xdwrPM_jAZZD--12" source="OJw41beUeaNImSEufT9z-3" target="OJw41beUeaNImSEufT9z-20" edge="1">
          <mxGeometry relative="1" as="geometry" />
        </mxCell>
        <mxCell id="OJw41beUeaNImSEufT9z-22" value="Tabelas de Atributos Fornecedor" style="swimlane;whiteSpace=wrap;html=1;startSize=20;" parent="4tnUn31xdwrPM_jAZZD--12" vertex="1">
          <mxGeometry x="510" y="320" width="220" height="70" as="geometry" />
        </mxCell>
        <mxCell id="OJw41beUeaNImSEufT9z-25" style="edgeStyle=orthogonalEdgeStyle;rounded=0;orthogonalLoop=1;jettySize=auto;html=1;entryX=0.5;entryY=0;entryDx=0;entryDy=0;" parent="4tnUn31xdwrPM_jAZZD--12" source="OJw41beUeaNImSEufT9z-4" target="OJw41beUeaNImSEufT9z-22" edge="1">
          <mxGeometry relative="1" as="geometry" />
        </mxCell>
        <mxCell id="OJw41beUeaNImSEufT9z-26" style="edgeStyle=orthogonalEdgeStyle;rounded=0;orthogonalLoop=1;jettySize=auto;html=1;entryX=0.5;entryY=0;entryDx=0;entryDy=0;" parent="4tnUn31xdwrPM_jAZZD--12" source="OJw41beUeaNImSEufT9z-9" target="OJw41beUeaNImSEufT9z-22" edge="1">
          <mxGeometry relative="1" as="geometry" />
        </mxCell>
        <mxCell id="OJw41beUeaNImSEufT9z-35" style="edgeStyle=orthogonalEdgeStyle;rounded=0;orthogonalLoop=1;jettySize=auto;html=1;exitX=0.5;exitY=1;exitDx=0;exitDy=0;entryX=0.652;entryY=0.006;entryDx=0;entryDy=0;entryPerimeter=0;dashed=1;dashPattern=1 4;" parent="4tnUn31xdwrPM_jAZZD--12" source="OJw41beUeaNImSEufT9z-22" target="OJw41beUeaNImSEufT9z-30" edge="1">
          <mxGeometry relative="1" as="geometry">
            <Array as="points">
              <mxPoint x="600" y="390" />
              <mxPoint x="600" y="455" />
              <mxPoint x="342" y="455" />
            </Array>
          </mxGeometry>
        </mxCell>
        <mxCell id="4tnUn31xdwrPM_jAZZD--3" value="Camada STAGE" style="swimlane;horizontal=0;whiteSpace=wrap;html=1;" vertex="1" parent="4tnUn31xdwrPM_jAZZD--12">
          <mxGeometry y="140" width="860" height="300" as="geometry" />
        </mxCell>
        <mxCell id="4tnUn31xdwrPM_jAZZD--4" value="CamadaTRUST" style="swimlane;horizontal=0;whiteSpace=wrap;html=1;" vertex="1" parent="4tnUn31xdwrPM_jAZZD--12">
          <mxGeometry y="440" width="860" height="520" as="geometry" />
        </mxCell>
        <mxCell id="OJw41beUeaNImSEufT9z-30" value="trust.empresa.dim_empresas" style="swimlane;whiteSpace=wrap;html=1;startSize=25;" parent="4tnUn31xdwrPM_jAZZD--4" vertex="1">
          <mxGeometry x="225" y="40" width="180" height="80" as="geometry" />
        </mxCell>
        <mxCell id="OJw41beUeaNImSEufT9z-31" value="trust.pessoa.dim_pessoas" style="swimlane;whiteSpace=wrap;html=1;startSize=30;" parent="4tnUn31xdwrPM_jAZZD--4" vertex="1">
          <mxGeometry x="520" y="40" width="180" height="80" as="geometry" />
        </mxCell>
        <mxCell id="5af-X2GV4RC60JAtxYIc-1" value="dim_telefone" style="swimlane;whiteSpace=wrap;html=1;" parent="4tnUn31xdwrPM_jAZZD--4" vertex="1">
          <mxGeometry x="40" y="160" width="155" height="50" as="geometry" />
        </mxCell>
        <mxCell id="qjcGjj4qRyQmBDGVLc9W-1" value="dim_endereco" style="swimlane;whiteSpace=wrap;html=1;" parent="4tnUn31xdwrPM_jAZZD--4" vertex="1">
          <mxGeometry x="40" y="320" width="155" height="50" as="geometry" />
        </mxCell>
        <mxCell id="qjcGjj4qRyQmBDGVLc9W-2" value="dim_email" style="swimlane;whiteSpace=wrap;html=1;" parent="4tnUn31xdwrPM_jAZZD--4" vertex="1">
          <mxGeometry x="40" y="235" width="155" height="50" as="geometry" />
        </mxCell>
        <mxCell id="qjcGjj4qRyQmBDGVLc9W-3" value="dim_telefone" style="swimlane;whiteSpace=wrap;html=1;" parent="4tnUn31xdwrPM_jAZZD--4" vertex="1">
          <mxGeometry x="680" y="160" width="155" height="50" as="geometry" />
        </mxCell>
        <mxCell id="qjcGjj4qRyQmBDGVLc9W-4" value="dim_endereco" style="swimlane;whiteSpace=wrap;html=1;" parent="4tnUn31xdwrPM_jAZZD--4" vertex="1">
          <mxGeometry x="680" y="310" width="155" height="50" as="geometry" />
        </mxCell>
        <mxCell id="qjcGjj4qRyQmBDGVLc9W-5" value="dim_email" style="swimlane;whiteSpace=wrap;html=1;" parent="4tnUn31xdwrPM_jAZZD--4" vertex="1">
          <mxGeometry x="680" y="235" width="155" height="50" as="geometry" />
        </mxCell>
        <mxCell id="qjcGjj4qRyQmBDGVLc9W-7" style="edgeStyle=orthogonalEdgeStyle;rounded=0;orthogonalLoop=1;jettySize=auto;html=1;entryX=0.5;entryY=0;entryDx=0;entryDy=0;" parent="4tnUn31xdwrPM_jAZZD--4" source="qjcGjj4qRyQmBDGVLc9W-6" edge="1">
          <mxGeometry relative="1" as="geometry">
            <mxPoint x="442.5" y="440" as="targetPoint" />
          </mxGeometry>
        </mxCell>
        <mxCell id="qjcGjj4qRyQmBDGVLc9W-6" value="&lt;b&gt;Dados Finais&lt;/b&gt;" style="shape=process;whiteSpace=wrap;html=1;backgroundOutline=1;" parent="4tnUn31xdwrPM_jAZZD--4" vertex="1">
          <mxGeometry x="352.5" y="340" width="180" height="60" as="geometry" />
        </mxCell>
        <mxCell id="qjcGjj4qRyQmBDGVLc9W-11" style="edgeStyle=orthogonalEdgeStyle;rounded=0;orthogonalLoop=1;jettySize=auto;html=1;entryX=1;entryY=0.5;entryDx=0;entryDy=0;" parent="4tnUn31xdwrPM_jAZZD--4" source="qjcGjj4qRyQmBDGVLc9W-9" target="5af-X2GV4RC60JAtxYIc-1" edge="1">
          <mxGeometry relative="1" as="geometry" />
        </mxCell>
        <mxCell id="qjcGjj4qRyQmBDGVLc9W-13" style="edgeStyle=orthogonalEdgeStyle;rounded=0;orthogonalLoop=1;jettySize=auto;html=1;entryX=1;entryY=0.75;entryDx=0;entryDy=0;" parent="4tnUn31xdwrPM_jAZZD--4" source="qjcGjj4qRyQmBDGVLc9W-9" target="qjcGjj4qRyQmBDGVLc9W-1" edge="1">
          <mxGeometry relative="1" as="geometry" />
        </mxCell>
        <mxCell id="qjcGjj4qRyQmBDGVLc9W-14" style="edgeStyle=orthogonalEdgeStyle;rounded=0;orthogonalLoop=1;jettySize=auto;html=1;entryX=0.5;entryY=0;entryDx=0;entryDy=0;" parent="4tnUn31xdwrPM_jAZZD--4" source="qjcGjj4qRyQmBDGVLc9W-9" target="qjcGjj4qRyQmBDGVLc9W-6" edge="1">
          <mxGeometry relative="1" as="geometry" />
        </mxCell>
        <mxCell id="qjcGjj4qRyQmBDGVLc9W-17" style="edgeStyle=orthogonalEdgeStyle;rounded=0;orthogonalLoop=1;jettySize=auto;html=1;entryX=0;entryY=0.5;entryDx=0;entryDy=0;" parent="4tnUn31xdwrPM_jAZZD--4" source="qjcGjj4qRyQmBDGVLc9W-9" target="qjcGjj4qRyQmBDGVLc9W-3" edge="1">
          <mxGeometry relative="1" as="geometry" />
        </mxCell>
        <mxCell id="qjcGjj4qRyQmBDGVLc9W-18" style="edgeStyle=orthogonalEdgeStyle;rounded=0;orthogonalLoop=1;jettySize=auto;html=1;" parent="4tnUn31xdwrPM_jAZZD--4" source="qjcGjj4qRyQmBDGVLc9W-9" edge="1">
          <mxGeometry relative="1" as="geometry">
            <mxPoint x="680" y="260" as="targetPoint" />
          </mxGeometry>
        </mxCell>
        <mxCell id="qjcGjj4qRyQmBDGVLc9W-19" style="edgeStyle=orthogonalEdgeStyle;rounded=0;orthogonalLoop=1;jettySize=auto;html=1;entryX=0;entryY=0.75;entryDx=0;entryDy=0;" parent="4tnUn31xdwrPM_jAZZD--4" source="qjcGjj4qRyQmBDGVLc9W-9" target="qjcGjj4qRyQmBDGVLc9W-4" edge="1">
          <mxGeometry relative="1" as="geometry" />
        </mxCell>
        <mxCell id="qjcGjj4qRyQmBDGVLc9W-21" style="edgeStyle=orthogonalEdgeStyle;rounded=0;orthogonalLoop=1;jettySize=auto;html=1;entryX=1;entryY=0.5;entryDx=0;entryDy=0;" parent="4tnUn31xdwrPM_jAZZD--4" source="qjcGjj4qRyQmBDGVLc9W-9" target="qjcGjj4qRyQmBDGVLc9W-2" edge="1">
          <mxGeometry relative="1" as="geometry" />
        </mxCell>
        <mxCell id="qjcGjj4qRyQmBDGVLc9W-9" value="link_dimensoes" style="swimlane;whiteSpace=wrap;html=1;" parent="4tnUn31xdwrPM_jAZZD--4" vertex="1">
          <mxGeometry x="365" y="220" width="155" height="80" as="geometry" />
        </mxCell>
        <mxCell id="qjcGjj4qRyQmBDGVLc9W-10" style="edgeStyle=orthogonalEdgeStyle;rounded=0;orthogonalLoop=1;jettySize=auto;html=1;" parent="4tnUn31xdwrPM_jAZZD--4" source="OJw41beUeaNImSEufT9z-30" target="qjcGjj4qRyQmBDGVLc9W-9" edge="1">
          <mxGeometry relative="1" as="geometry" />
        </mxCell>
        <mxCell id="qjcGjj4qRyQmBDGVLc9W-20" style="edgeStyle=orthogonalEdgeStyle;rounded=0;orthogonalLoop=1;jettySize=auto;html=1;exitX=0.5;exitY=1;exitDx=0;exitDy=0;entryX=0.637;entryY=-0.011;entryDx=0;entryDy=0;entryPerimeter=0;" parent="4tnUn31xdwrPM_jAZZD--4" source="OJw41beUeaNImSEufT9z-31" target="qjcGjj4qRyQmBDGVLc9W-9" edge="1">
          <mxGeometry relative="1" as="geometry" />
        </mxCell>
        <mxCell id="OJw41beUeaNImSEufT9z-40" value="Filtro Saida" style="swimlane;whiteSpace=wrap;html=1;" parent="4tnUn31xdwrPM_jAZZD--4" vertex="1">
          <mxGeometry x="352.5" y="430" width="180" height="80" as="geometry" />
        </mxCell>
        <mxCell id="OJw41beUeaNImSEufT9z-32" style="edgeStyle=orthogonalEdgeStyle;rounded=0;orthogonalLoop=1;jettySize=auto;html=1;" parent="4tnUn31xdwrPM_jAZZD--12" source="OJw41beUeaNImSEufT9z-20" target="OJw41beUeaNImSEufT9z-30" edge="1">
          <mxGeometry relative="1" as="geometry">
            <Array as="points">
              <mxPoint x="230" y="460" />
              <mxPoint x="315" y="460" />
            </Array>
          </mxGeometry>
        </mxCell>
        <mxCell id="OJw41beUeaNImSEufT9z-37" style="edgeStyle=orthogonalEdgeStyle;rounded=0;orthogonalLoop=1;jettySize=auto;html=1;entryX=0.25;entryY=0;entryDx=0;entryDy=0;dashed=1;dashPattern=1 4;" parent="4tnUn31xdwrPM_jAZZD--12" source="OJw41beUeaNImSEufT9z-20" target="OJw41beUeaNImSEufT9z-31" edge="1">
          <mxGeometry relative="1" as="geometry">
            <Array as="points">
              <mxPoint x="260" y="420" />
              <mxPoint x="565" y="420" />
            </Array>
          </mxGeometry>
        </mxCell>
        <mxCell id="OJw41beUeaNImSEufT9z-39" style="edgeStyle=orthogonalEdgeStyle;rounded=0;orthogonalLoop=1;jettySize=auto;html=1;entryX=0.75;entryY=0;entryDx=0;entryDy=0;" parent="4tnUn31xdwrPM_jAZZD--12" source="OJw41beUeaNImSEufT9z-22" target="OJw41beUeaNImSEufT9z-31" edge="1">
          <mxGeometry relative="1" as="geometry" />
        </mxCell>
        <mxCell id="4tnUn31xdwrPM_jAZZD--7" value="Camada INGEST" style="swimlane;horizontal=0;whiteSpace=wrap;html=1;" vertex="1" parent="4tnUn31xdwrPM_jAZZD--12">
          <mxGeometry width="860" height="140" as="geometry" />
        </mxCell>
        <mxCell id="4tnUn31xdwrPM_jAZZD--8" value="" style="verticalLabelPosition=bottom;verticalAlign=top;html=1;shape=mxgraph.basic.frame;dx=10;whiteSpace=wrap;" vertex="1" parent="4tnUn31xdwrPM_jAZZD--7">
          <mxGeometry x="360" y="20" width="140" height="60" as="geometry" />
        </mxCell>
        <mxCell id="4tnUn31xdwrPM_jAZZD--11" value="&lt;font style=&quot;font-size: 14px;&quot;&gt;SAP&lt;/font&gt;" style="text;html=1;align=center;verticalAlign=middle;resizable=0;points=[];autosize=1;strokeColor=none;fillColor=none;" vertex="1" parent="4tnUn31xdwrPM_jAZZD--7">
          <mxGeometry x="405" y="35" width="50" height="30" as="geometry" />
        </mxCell>
        <mxCell id="OJw41beUeaNImSEufT9z-11" value="Cliente" style="shape=process;whiteSpace=wrap;html=1;backgroundOutline=1;" parent="4tnUn31xdwrPM_jAZZD--7" vertex="1">
          <mxGeometry x="170" y="80" width="120" height="30" as="geometry" />
        </mxCell>
        <mxCell id="OJw41beUeaNImSEufT9z-13" style="edgeStyle=orthogonalEdgeStyle;rounded=0;orthogonalLoop=1;jettySize=auto;html=1;entryX=0.5;entryY=0;entryDx=0;entryDy=0;exitX=0;exitY=0.5;exitDx=0;exitDy=0;exitPerimeter=0;" parent="4tnUn31xdwrPM_jAZZD--7" source="4tnUn31xdwrPM_jAZZD--8" target="OJw41beUeaNImSEufT9z-11" edge="1">
          <mxGeometry relative="1" as="geometry">
            <mxPoint x="360" y="50" as="sourcePoint" />
          </mxGeometry>
        </mxCell>
        <mxCell id="OJw41beUeaNImSEufT9z-12" value="Fornecedor" style="shape=process;whiteSpace=wrap;html=1;backgroundOutline=1;" parent="4tnUn31xdwrPM_jAZZD--7" vertex="1">
          <mxGeometry x="560" y="80" width="120" height="30" as="geometry" />
        </mxCell>
        <mxCell id="OJw41beUeaNImSEufT9z-14" style="edgeStyle=orthogonalEdgeStyle;rounded=0;orthogonalLoop=1;jettySize=auto;html=1;entryX=0.598;entryY=-0.022;entryDx=0;entryDy=0;entryPerimeter=0;exitX=1;exitY=0.5;exitDx=0;exitDy=0;exitPerimeter=0;" parent="4tnUn31xdwrPM_jAZZD--7" source="4tnUn31xdwrPM_jAZZD--8" target="OJw41beUeaNImSEufT9z-12" edge="1">
          <mxGeometry relative="1" as="geometry">
            <mxPoint x="480" y="56" as="sourcePoint" />
          </mxGeometry>
        </mxCell>
      </root>
    </mxGraphModel>
  </diagram>
</mxfile>
